<?xml version="1.0" encoding="UTF-8"?>
<svg width="208px" height="480px" viewBox="0 0 208 480" version="1.1" xmlns="http://www.w3.org/2000/svg" xmlns:xlink="http://www.w3.org/1999/xlink">
    <g stroke="none" stroke-width="1" fill="none" fill-rule="evenodd">
        <path d="M0,0 L208,0 L208,56 L0,56 L0,0 Z M8,8 L200,8 L200,48 L8,48 L8,8 Z" id="pipe-border-wider" fill="#333333"></path>
        <g id="pipe-border-wider-shade-lighest" transform="translate(8.000000, 8.000000)" fill="#59ACFF">
            <rect id="one" x="0" y="0" width="24" height="40"></rect>
            <rect id="two" x="32" y="0" width="8" height="40"></rect>
        </g>
        <g id="pipe-border-widest-shade-medium" transform="translate(32.000000, 8.000000)" fill="#3399FF">
            <rect id="two" x="16" y="0" width="112" height="40"></rect>
            <rect id="three" x="136" y="0" width="8" height="40"></rect>
            <rect id="one" x="0" y="0" width="8" height="40"></rect>
        </g>
        <g id="pipe-border-wider-shade-darkest" transform="translate(160.000000, 8.000000)" fill="#0066CC">
            <rect id="two" x="16" y="0" width="24" height="40"></rect>
            <rect id="one" x="0" y="0" width="8" height="40"></rect>
        </g>
        <path d="M8,56 L200,56 L200,480 L8,480 L8,56 Z M16,64 L192,64 L192,480 L16,480 L16,64 Z" id="pipe-border" fill="#333333"></path>
        <g id="pipe-border-shade-medium" transform="translate(40.000000, 64.000000)" fill="#3399FF">
            <rect id="one" x="0" y="0" width="8" height="416"></rect>
            <rect id="two" x="16" y="0" width="96" height="416"></rect>
            <rect id="three" x="120" y="0" width="8" height="416"></rect>
        </g>
        <g id="pipe-border-shade-lightest" transform="translate(16.000000, 64.000000)" fill="#59ACFF">
            <rect id="one" x="0" y="0" width="24" height="416"></rect>
            <rect id="two" x="32" y="0" width="8" height="416"></rect>
        </g>
        <g id="pipe-border-shade-darkest" transform="translate(152.000000, 64.000000)" fill="#0066CC">
            <rect id="two" x="16" y="0" width="24" height="416"></rect>
            <rect id="one" x="0" y="0" width="8" height="416"></rect>
        </g>
    </g>
</svg>
