<?xml version="1.0" encoding="UTF-8"?>
<svg width="120px" height="192px" viewBox="0 0 120 192" version="1.1" xmlns="http://www.w3.org/2000/svg" xmlns:xlink="http://www.w3.org/1999/xlink">
    <!-- Generator: Sketch 39.1 (31720) - http://www.bohemiancoding.com/sketch -->
    <title>back</title>
    <desc>Created with Sketch.</desc>
    <defs></defs>
    <g id="Page-1" stroke="none" stroke-width="1" fill="none" fill-rule="evenodd">
        <g id="tucker" transform="translate(-87.000000, 0.000000)" fill="#375365">
            <polygon id="back" points="103 56 111 56 111 48 119 48 119 32 127 32 127 24 143 24 143 16 151 16 151 8 175 8 175 0 207 0 207 8 191 8 191 16 175 16 175 24 166 24 167 24 167 32 159 32 159 64 167 64 167 88 175 88 175 104 174 105 175 104 175 112 167 112 167 128 159 128 159 144 151 144 151 152 143 152 143 160 135 160 135 168 127 168 127 176 111 176 111 184 95 184 95 192 87 192 87 160 95 160 95 112 103 112 103 104"></polygon>
        </g>
    </g>
</svg>