<?xml version="1.0" encoding="UTF-8"?>
<svg width="64px" height="112px" viewBox="0 0 64 112" version="1.1" xmlns="http://www.w3.org/2000/svg" xmlns:xlink="http://www.w3.org/1999/xlink">
    <!-- Generator: Sketch 39.1 (31720) - http://www.bohemiancoding.com/sketch -->
    <title>face mask</title>
    <desc>Created with Sketch.</desc>
    <defs></defs>
    <g id="Page-1" stroke="none" stroke-width="1" fill="none" fill-rule="evenodd">
        <g id="tucker" transform="translate(-167.000000, 0.000000)" fill="#FFCE36">
            <polygon id="face-mask" points="207 0 207 8 191 8 191 16 207 16 207 24 215 24 215 40 223 40 223 56 215 56 215 64 216 63 215 64 215 72 208 72 207 73 208 72 199 72 199 80 175 80 175 72 167 72 167 88 175 88 175 96 183 96 183 104 199 104 199 112 231 112 231 0 216 0"></polygon>
        </g>
    </g>
</svg>