<?xml version="1.0" encoding="UTF-8"?>
<svg width="176px" height="176px" viewBox="0 0 176 176" version="1.1" xmlns="http://www.w3.org/2000/svg" xmlns:xlink="http://www.w3.org/1999/xlink">
    <!-- Generator: Sketch 39.1 (31720) - http://www.bohemiancoding.com/sketch -->
    <title>tail breast</title>
    <desc>Created with Sketch.</desc>
    <defs></defs>
    <g id="Page-1" stroke="none" stroke-width="1" fill="none" fill-rule="evenodd">
        <g id="tucker" transform="translate(-55.000000, -96.000000)" fill="#1C394B">
            <polygon id="tail-breast" points="151 144 159 144 159 128 167 128 167 112 175 112 175 104 176 105 175 104 175 96 183 96 183 104 199 104 199 112 231 112 231 168 223 168 223 176 215 176 215 184 207 184 207 192 199 192 199 200 191 200 191 208 167 208 167 216 135 216 135 264 127 264 127 272 111 272 111 264 95 264 95 256 103 256 103 248 111 248 111 240 95 240 95 248 87 248 87 256 71 256 71 248 64 248 63 247 64 248 55 248 55 240 63 240 63 232 71 232 71 216 79 216 79 208 87 208 87 192 95 192 95 184 111 184 111 176 127 176 127 168 135 168 135 160 143 160 143 152 151 152"></polygon>
        </g>
    </g>
</svg>