<?xml version="1.0" encoding="UTF-8"?>
<svg width="160px" height="152px" viewBox="0 0 160 152" version="1.1" xmlns="http://www.w3.org/2000/svg" xmlns:xlink="http://www.w3.org/1999/xlink">
    <!-- Generator: Sketch 39.1 (31720) - http://www.bohemiancoding.com/sketch -->
    <title>wing</title>
    <desc>Created with Sketch.</desc>
    <defs></defs>
    <g id="Page-1" stroke="none" stroke-width="1" fill="none" fill-rule="evenodd">
        <g id="tucker" transform="translate(0.000000, -40.000000)" fill="#375365">
            <polygon id="wing" points="56 56 56 64 72 64 72 72 88 72 88 80 128 80 128 88 136 88 136 96 144 96 144 112 152 112 152 120 160 120 160 144 152 144 152 152 144 152 144 160 136 160 136 168 128 168 128 176 112 176 112 184 96 184 96 192 80 192 80 184 56 184 56 176 40 176 40 168 32 168 32 160 24 160 24 152 16 152 16 136 8 136 8 120 0 120 0 40 16 40 16 48 40 48 40 56"></polygon>
        </g>
    </g>
</svg>